<?xml version="1.0" encoding="utf-8"?><svg viewBox="0 0 25 14" xmlns="http://www.w3.org/2000/svg" xmlns:xlink="http://www.w3.org/1999/xlink"><style>:root>svg{display:none}:root>svg:target{display:block}</style><svg viewBox="0 0 25 9" id="arrow-next" xmlns="http://www.w3.org/2000/svg"><path d="M0 5h24m0 0l-2.5-4M24 5l-3 3.5"/></svg><svg viewBox="0 0 25 9" id="arrow-prev" xmlns="http://www.w3.org/2000/svg"><path d="M25 5H1m0 0l2.5-4M1 5l3 3.5"/></svg><svg fill="none" viewBox="0 0 9 14" id="geolocation" xmlns="http://www.w3.org/2000/svg"><path fill-rule="evenodd" clip-rule="evenodd" d="M4.333 13.565s4.334-5.093 4.334-8.061S6.727.667 4.333.667C1.94.667 0 2.536 0 5.504s4.333 8.06 4.333 8.06zm0-5.912a2.698 2.698 0 002.709-2.686A2.698 2.698 0 004.333 2.28a2.698 2.698 0 00-2.708 2.687 2.698 2.698 0 002.708 2.686z" fill="#fff"/></svg><svg fill="none" viewBox="0 0 9 13" id="phone" xmlns="http://www.w3.org/2000/svg"><path d="M.016 2.99c-.05-.693.105-1.376.516-1.926.356-.497.819-.77 1.377-.928.47-.139.778.031.914.55.194.775.47 1.55.57 2.367.032.36-.202.868-.455 1.13-.636.62-.504 1.072-.022 2.012.15.303.388.827.851 1.52.483.699.738 1.074 1.358.756.689-.344 1.19-.123 1.71.432.352.4.74.745 1.092 1.146.509.595.486 1.006.088 1.427-.717.775-1.9 1.031-2.78.512a5.65 5.65 0 01-1.357-1.084C2.178 8.983.953 6.75.215 4.227a6.312 6.312 0 01-.2-1.237z" fill="#fff"/></svg></svg>